inDegrees=no
num_controls=7
num_derivatives=13
num_iterations=142
num_multipliers=7
num_parameters=0
num_slacks=7
num_states=26
objective=5.124225
objective_accelerations=0.407771
objective_balance=0.105510
objective_effort=0.316326
objective_height=4.253543
objective_ligament=0.041075
solver_duration=1628.952920
status=Solve_Succeeded
success=true
DataType=double
version=3
OpenSimVersion=4.4-2022-07-23-0e9fedc
endheader
time	/jointset/ground_pelvis/pelvis_tilt/value	/jointset/ground_pelvis/pelvis_tx/value	/jointset/ground_pelvis/pelvis_ty/value	/jointset/hip_l/hip_flexion_l/value	/jointset/hip_l/hip_adduction_l/value	/jointset/hip_l/hip_rotation_l/value	/jointset/back/lumbar_extension/value	/jointset/patellofemoral_l/patellar_flexion_l/value	/jointset/knee_l/knee_flexion_l/value	/jointset/knee_l/knee_adduction_l/value	/jointset/knee_l/knee_rotation_l/value	/jointset/ankle_l/ankle_angle_l/value	/jointset/subtalar_l/subtalar_angle_l/value	/jointset/ground_pelvis/pelvis_tilt/speed	/jointset/ground_pelvis/pelvis_tx/speed	/jointset/ground_pelvis/pelvis_ty/speed	/jointset/hip_l/hip_flexion_l/speed	/jointset/hip_l/hip_adduction_l/speed	/jointset/hip_l/hip_rotation_l/speed	/jointset/back/lumbar_extension/speed	/jointset/patellofemoral_l/patellar_flexion_l/speed	/jointset/knee_l/knee_flexion_l/speed	/jointset/knee_l/knee_adduction_l/speed	/jointset/knee_l/knee_rotation_l/speed	/jointset/ankle_l/ankle_angle_l/speed	/jointset/subtalar_l/subtalar_angle_l/speed	/forceset/tau_hip_flexion_l	/forceset/tau_hip_adduction_l	/forceset/tau_hip_rotation_l	/forceset/tau_knee_flexion_l	/forceset/tau_ankle_angle_l	/forceset/tau_subtalar_angle_l	/forceset/tau_lumbar_extension	lambda_cid13_p0	lambda_cid13_p1	lambda_cid13_p2	lambda_cid13_p3	lambda_cid13_p4	lambda_cid13_p5	lambda_cid14_p0	/jointset/ground_pelvis/pelvis_tilt/accel	/jointset/ground_pelvis/pelvis_tx/accel	/jointset/ground_pelvis/pelvis_ty/accel	/jointset/hip_l/hip_flexion_l/accel	/jointset/hip_l/hip_adduction_l/accel	/jointset/hip_l/hip_rotation_l/accel	/jointset/back/lumbar_extension/accel	/jointset/patellofemoral_l/patellar_flexion_l/accel	/jointset/knee_l/knee_flexion_l/accel	/jointset/knee_l/knee_adduction_l/accel	/jointset/knee_l/knee_rotation_l/accel	/jointset/ankle_l/ankle_angle_l/accel	/jointset/subtalar_l/subtalar_angle_l/accel	gamma_cid13_p0	gamma_cid13_p1	gamma_cid13_p2	gamma_cid13_p3	gamma_cid13_p4	gamma_cid13_p5	gamma_cid14_p0
0	-0.1601681440555821	0.05857489836168715	0.8979987677300578	0.3774920279260975	-0.2591367376149501	-0.2729748356926605	-0.0126506700172305	0.03223623128439125	0.03223623128433527	-0.1745329031417223	0.1745315633885903	-0.04231376238535053	-0.009261113166455344	0	0	0	0	0	0	0	0	0	0	0	0	0	0.1535495990531495	-0.1078818515146223	-0.05911613748804223	-0.3602049621908955	0.4252574089503192	-0.04688413251833627	-0.08581911764901544	94.5835242514098	-1.521063070307553	5.91902929097019	-52.00214367410495	-601.6064991133239	-84.09920102455023	-39.07544459413399	-2.304749404413306	-0.6482484570326266	-0.7030996082416805	7.934788304031462	-1.123331036353969	2.906845466928213	-4.676175646106547	8.149014733517896	8.149014733517392	0.08234696178167458	-0.007382297697661112	2.711134305455211	-0.517799571980492	-3.66773469947714e-08	7.249703181227648e-08	6.368046189490101e-08	1.702275142201499e-08	9.792884710312759e-10	-3.371889103067794e-08	-8.270275576977275e-09
0.01	-0.1602784704406688	0.05854238363642673	0.8979644504402819	0.3778784924075828	-0.2591923997709719	-0.2728300338352962	-0.01288474061376674	0.03263459499746006	0.03263459499743646	-0.1745300389502228	0.1745286466746294	-0.04218216747141315	-0.009287413704468311	-0.02189733483488222	-0.006537311190101847	-0.00684107569427738	0.07697023522827269	-0.01107965235914947	0.02881376608886368	-0.04651682909281234	0.07934506030306486	0.07934506030305598	0.0005670298530200373	-0.0005568398701964693	0.02613393796641888	-0.005251235033189025	0.1451997473533737	-0.1169301103392163	-0.05695418520548728	-0.3467764933222369	0.4023106789562618	-0.02972363127529888	-0.07976470161182012	87.81976070071684	-7.534346797305541	6.586167835579846	-47.3156789661077	-602.2307547785612	-95.28014400432745	-39.08668963695239	-2.107039724201187	-0.6616239636220936	-0.6712540154138324	7.529736242708202	-1.092387218920673	2.846644986430692	-4.594843008545436	7.778100991103753	7.778100991103617	0.04303124741615839	-0.07586424424643862	2.536763515087074	-0.5274728176167434	-5.200199539394e-08	8.326651037906985e-08	8.580562744173318e-08	2.834247337101918e-08	-7.940627229192547e-08	-2.186281782248475e-08	-1.319243964250425e-08
0.02	-0.1606027330143177	0.05844346549654437	0.8978623939004787	0.3790249782632601	-0.2593572794272211	-0.2724014937555497	-0.01357506079481029	0.03381657917576746	0.03381657917580452	-0.1745216744081652	0.1745209556790724	-0.0417947851832324	-0.009365964062539842	-0.04278723771652712	-0.01328068292438584	-0.01354785000545459	0.1520042748760682	-0.0218435000472432	0.05674764444021872	-0.09124991689275964	0.1567240931022113	0.1567240931021955	0.001100069720044975	-0.0009548562429633718	0.05115747484688768	-0.01044996401158398	0.136849895650963	-0.1259783691641524	-0.05479223292253792	-0.3333480244555078	0.3793639489614148	-0.01256313003277995	-0.07371028557602147	81.12204766642596	-13.56165738222364	7.258359703386855	-42.8278009901049	-601.9036422183941	-106.3639106159832	-39.12009817765692	-2.103263013766732	-0.6894605658681503	-0.6762393316217939	7.547549187935354	-1.060170102144976	2.730867919423822	-4.319427387533679	7.755809232734514	7.755809232734407	0.07554896457815727	0.024382401791136	2.489054088265656	-0.5072983610236347	-6.732664379310861e-08	9.403598894586322e-08	1.079307929885653e-07	3.966219532002338e-08	-1.597918330548822e-07	-1.000674461429156e-08	-1.811460370803123e-08
0.03	-0.1611314934807132	0.05827678299279734	0.8976938458336711	0.3809120709506024	-0.2596279739259919	-0.2716978324902663	-0.01470374019014285	0.03576258418583521	0.03576258418596447	-0.1745079213214311	0.1745099584841451	-0.04116177089388112	-0.009495815457147226	-0.06284366023240183	-0.02001920815033531	-0.02014567639273623	0.2250559528025009	-0.03222163353592883	0.08385846945623796	-0.1341999924039464	0.2321378080619855	0.2321378080619822	0.001659433300590054	-0.001238055793558022	0.07534902147808251	-0.0154735360655034	0.1313211153955833	-0.1180954358777533	-0.05377707409155605	-0.3265848516024685	0.370970482554856	-0.01598440826108941	-0.06940158985931598	78.26847142282597	-11.75967207585534	7.180691953635962	-41.00896098353681	-602.1884752782264	-101.7621081520471	-39.17471169038824	-1.938658648219324	-0.660549069661901	-0.6491735310550655	7.130221186422388	-1.015590372712564	2.682254958543669	-4.239902168091653	7.383291140881321	7.38329114088328	0.04748966518329027	-0.05370460974266508	2.369745530490984	-0.4928961137254207	-8.434482717947641e-08	9.934128336244037e-08	1.321957090380097e-07	5.419967044555826e-08	-2.363068168268305e-07	-9.417382921231581e-09	-2.310933736263539e-08
0.04	-0.1618571835278196	0.05804381512305154	0.8974597956552337	0.3835189292355404	-0.2600002408397448	-0.270726849941698	-0.01625334124762106	0.03845255404832063	0.0384525540483413	-0.1744883026764373	0.1744963225979409	-0.04028973302222874	-0.00967450446952493	-0.08217315385721016	-0.02653775612413891	-0.02664827233140631	0.2959573943859024	-0.04215798304395692	0.1102119011063375	-0.1754342493224114	0.3055170635530619	0.3055170635530714	0.002273181296727118	-0.001482594394404491	0.09896219130705934	-0.02021748756541242	0.1257923351407829	-0.110212502591227	-0.05276191526154581	-0.3198216787488971	0.362577016148474	-0.01940568648922085	-0.06509289414230263	75.47741739726698	-9.966774663636073	7.102352933333978	-39.37864261913401	-601.5889117744892	-97.06280485629898	-39.24935261648354	-1.957877235554077	-0.6454651154382927	-0.6571932418995272	7.117501919328775	-0.971813306014281	2.579389246238455	-3.976263668989477	7.348917338995061	7.348917338995006	0.08642584769481662	0.03211459174228605	2.373378727822633	-0.4513742502221911	-1.01397928813003e-07	1.045339141882914e-07	1.565047436545181e-07	6.880349099741336e-08	-3.127419948876241e-07	-9.060324558380534e-09	-2.810556729742672e-08
